<?xml version="1.0" encoding="utf-8"?>
<!-- Generator: Adobe Illustrator 27.2.0, SVG Export Plug-In . SVG Version: 6.00 Build 0)  -->
<svg version="1.1" id="Layer_1" xmlns="http://www.w3.org/2000/svg" xmlns:xlink="http://www.w3.org/1999/xlink" x="0px" y="0px"
	 viewBox="0 0 512 512" style="enable-background:new 0 0 512 512;" xml:space="preserve">
<style type="text/css">
	.st0{fill:#212121;}
</style>
<g>
	<path class="st0" d="M440.5,58.7c-10-10-26.21-10-36.2,0c-10,10-10,26.21,0,36.2l20.52,20.52
		c-97.51,4.15-157.93,66.31-210.59,120.49l-2.18,2.25C155.05,296.77,106.16,345.6,25.6,345.6C11.46,345.6,0,357.06,0,371.2
		c0,14.14,11.46,25.6,25.6,25.6c103.66,0,166.47-64.63,220.97-120.71l2.18-2.25c54.37-55.93,101.38-102.94,175.54-107.14
		L404.3,186.7c-10,10-10,26.21,0,36.2c10,10,26.21,10,36.2,0l64-64c4.8-4.8,7.5-11.31,7.5-18.1c0-6.79-2.7-13.3-7.5-18.1L440.5,58.7
		z M25.6,115.21c82.65,0,139.34,41.09,186.55,86.17c-5.04,5.11-9.94,10.15-14.7,15.05l-3.76,3.87c-5.96,6.13-11.74,12.05-17.4,17.74
		c-43.54-41.43-87.32-71.64-150.69-71.64c-14.14,0-25.6-11.46-25.6-25.6S11.46,115.21,25.6,115.21z M424.81,396.58
		c-77.07-3.27-130.96-42.79-176.17-85.96c5.04-5.11,9.94-10.15,14.7-15.06l3.76-3.87c5.95-6.12,11.74-12.04,17.4-17.73
		c41,39.01,82.2,68.08,139.78,71.34L404.3,325.3c-10-10-10-26.21,0-36.2c10-10,26.21-10,36.2,0l64,64c4.8,4.8,7.5,11.31,7.5,18.1
		s-2.7,13.3-7.5,18.1l-64,64c-10,10-26.21,10-36.2,0c-10-10-10-26.21,0-36.2L424.81,396.58z"/>
</g>
</svg>
