<?xml version="1.0" encoding="utf-8"?>
<!-- Generator: Adobe Illustrator 27.2.0, SVG Export Plug-In . SVG Version: 6.00 Build 0)  -->
<svg version="1.1" id="Layer_1" xmlns="http://www.w3.org/2000/svg" xmlns:xlink="http://www.w3.org/1999/xlink" x="0px" y="0px"
	 viewBox="0 0 512 512" style="enable-background:new 0 0 512 512;" xml:space="preserve">
<style type="text/css">
	.st0{fill:#212121;}
</style>
<g>
	<path class="st0" d="M32.78,5.62c-7.5-7.5-19.65-7.5-27.15,0c-7.5,7.5-7.5,19.66,0,27.15l94.84,94.84
		c-22.46-7.81-47.21-12.41-74.86-12.41C11.46,115.2,0,126.67,0,140.8c0,14.14,11.46,25.6,25.6,25.6
		c63.37,0,107.15,30.21,150.68,71.64c5.58-5.61,11.27-11.44,17.14-17.47l18.1,18.11C154.76,297.06,105.91,345.6,25.6,345.6
		C11.46,345.6,0,357.06,0,371.2c0,14.14,11.46,25.6,25.6,25.6c103.66,0,166.47-64.63,220.97-120.71l1.16-1.2l18.1,18.1l-2.49,2.56
		c-4.77,4.91-9.66,9.95-14.7,15.06c30.27,28.9,64.43,56.17,106.83,72.01l43.12,43.13c-3.65,9.21-1.75,20.1,5.7,27.54
		c7.45,7.45,18.34,9.35,27.54,5.7l47.38,47.38c7.5,7.5,19.66,7.5,27.15,0c7.5-7.5,7.5-19.66,0-27.15L32.78,5.62z M398.95,317.5
		l88.67,88.67l16.87-16.87c4.8-4.8,7.5-11.31,7.5-18.1c0-6.79-2.7-13.3-7.5-18.1l-64-64c-10-10-26.21-10-36.2,0
		C396.62,296.78,394.84,308.12,398.95,317.5z M266.49,185.03l36.35,36.35c35.26-30.41,72.42-51.89,121.45-54.67L404.3,186.7
		c-10,10-10,26.21,0,36.2c10,10,26.21,10,36.2,0l64-64c4.8-4.8,7.5-11.31,7.5-18.1c0-6.79-2.7-13.3-7.5-18.1l-64-64
		c-10-10-26.21-10-36.2,0c-10,10-10,26.21,0,36.2l20.52,20.52C357.63,118.27,308.05,148.67,266.49,185.03z"/>
</g>
</svg>
